<?xml version="1.0" encoding="UTF-8"?>
<svg id="_Шар_1" data-name="Шар_1" xmlns="http://www.w3.org/2000/svg" version="1.1" viewBox="0 0 500 500">
  <!-- Generator: Adobe Illustrator 30.2.1, SVG Export Plug-In . SVG Version: 2.1.1 Build 1)  -->
  <defs>
    <style>
      .st0 {
        fill: #e63946;
        opacity: .7;
      }
    </style>
  </defs>
  <path class="st0" d="M438.05,69.59h-75.44c0-38.47-21.05-69.59-47.05-69.59h-132.52c-26.01,0-47.05,31.13-47.05,69.59H60.54c-20.94,0-37.92,16.98-37.92,37.93v6.9c0,20.94,16.98,37.92,37.92,37.92h377.51c20.94,0,37.92-16.98,37.92-37.92v-6.9c0-20.95-16.98-37.93-37.92-37.93ZM169.93,69.59c.71-8.1,2.2-14.59,3.5-19.16,2.11-7.46,3.76-9.96,5.9-11.79,3.49-3.01,7.64-3.67,10.02-3.84h119.91c2.38.17,6.53.84,10.02,3.84,2.13,1.83,3.78,4.33,5.9,11.79,1.3,4.57,2.79,11.06,3.5,19.16h-158.74Z"/>
  <path class="st0" d="M59.99,175.43l17.45,266.07c2.16,32.9,29.49,58.5,62.46,58.5h218.79c32.97,0,60.3-25.59,62.46-58.5l17.45-266.07H59.99ZM220.15,344.76c0,9.58-7.77,17.35-17.35,17.35-4.79,0-9.14-1.95-12.27-5.08s-5.09-7.49-5.09-12.27v-94.98c0-9.59,7.77-17.36,17.36-17.36,4.78,0,9.13,1.95,12.27,5.08,3.13,3.14,5.08,7.49,5.08,12.28v94.98ZM313.16,344.76c0,9.58-7.77,17.35-17.36,17.35-4.78,0-9.13-1.95-12.27-5.08-3.13-3.14-5.08-7.49-5.08-12.27v-94.98c0-9.59,7.77-17.36,17.35-17.36,4.79,0,9.14,1.95,12.27,5.08s5.09,7.49,5.09,12.28v94.98Z"/>
</svg>