<?xml version="1.0" encoding="UTF-8"?>
<svg id="_Шар_1" xmlns="http://www.w3.org/2000/svg" version="1.1" viewBox="0 0 308 308">
  <!-- Generator: Adobe Illustrator 30.2.1, SVG Export Plug-In . SVG Version: 2.1.1 Build 1)  -->
  <defs>
    <style>
      .st0 {
        fill: #ffd831;
      }

      .st0, .st1 {
        opacity: .5;
      }

      .st2 {
        fill: #606060;
      }

      .st1 {
        fill: #e8be34;
      }
    </style>
  </defs>
  <path class="st1" d="M15.33,63.11h144.67c-36.33,0-36.44-33.89-69.33-33.89H16.89C7.56,29.22,0,36.79,0,46.11v32.23h0c.05-8.42,6.89-15.23,15.32-15.23Z"/>
  <rect class="st0" y="63.11" width="308" height="215.67" rx="15.33" ry="15.33"/>
  <path class="st2" d="M207.78,166.95v8c0,1.75-1.42,3.17-3.17,3.17h-40.28c-1.75,0-3.17,1.42-3.17,3.17v40.28c0,1.75-1.42,3.17-3.17,3.17h-8.01c-1.75,0-3.17-1.42-3.17-3.17v-40.28c0-1.75-1.42-3.17-3.17-3.17h-40.28c-1.75,0-3.17-1.42-3.17-3.17v-8c0-1.75,1.42-3.17,3.17-3.17h40.28c1.75,0,3.17-1.42,3.17-3.17v-40.28c0-1.75,1.42-3.17,3.17-3.17h8.01c1.75,0,3.17,1.42,3.17,3.17v40.28c0,1.75,1.42,3.17,3.17,3.17h40.28c1.75,0,3.17,1.42,3.17,3.17Z"/>
</svg>