<?xml version="1.0" encoding="utf-8"?>
<!-- Generator: Adobe Illustrator 28.0.0, SVG Export Plug-In . SVG Version: 6.00 Build 0)  -->
<svg version="1.1" id="box" xmlns="http://www.w3.org/2000/svg" xmlns:xlink="http://www.w3.org/1999/xlink" x="0px" y="0px"
	 viewBox="0 0 50 50" style="enable-background:new 0 0 50 50;" xml:space="preserve">
<style type="text/css">
	.st0{fill:#4D4D4D;}
</style>
<path class="st0" d="M30.5,37.1c-0.1,0.6-0.2,1.3-0.4,1.9c-0.5,0.2-1.1,0.4-1.9,0.6c-1.7,0.5-2.6,0.7-3.7,0.8
	c-0.6,0-3.6,0.1-4.8-1.7c-0.5-0.7-0.6-1.6-0.6-1.8c-0.1-0.7,0-1.4,0.1-1.8l2.3-9.3c0.1-0.3,0.2-0.7,0.2-1.1c0-0.6,0.1-1.3-0.3-1.7
	c-0.5-0.7-1.6-0.7-2.2-0.7c-1,0-1.7,0.4-2.2,0.6c0.1-0.6,0.3-1.3,0.4-1.9c0.5-0.2,1.1-0.4,1.9-0.6c1.7-0.5,2.6-0.8,3.7-0.8
	c0.6,0,3.6-0.1,4.8,1.7c0.4,0.7,0.6,1.6,0.6,1.8c0.1,0.7,0,1.4-0.1,1.8L26,34.1c-0.1,0.3-0.2,0.7-0.2,1.1c0,0.6-0.1,1.3,0.3,1.8
	c0.5,0.7,1.6,0.7,2.2,0.7C29.3,37.7,30.1,37.4,30.5,37.1z"/>
<ellipse class="st0" cx="27.3" cy="13" rx="3.9" ry="3.8"/>
<path class="st0" d="M25,0C11.2,0,0,11.2,0,25s11.2,25,25,25s25-11.2,25-25S38.8,0,25,0z M25,46.9C12.9,46.9,3.1,37.1,3.1,25
	S12.9,3.1,25,3.1S46.9,12.9,46.9,25S37.1,46.9,25,46.9z"/>
</svg>
