<?xml version="1.0" encoding="utf-8"?>
<svg version="1.1" id="box" xmlns="http://www.w3.org/2000/svg" xmlns:xlink="http://www.w3.org/1999/xlink" x="0px" y="0px"
	 viewBox="0 0 1722.7 403" style="enable-background:new 0 0 1722.7 403;" xml:space="preserve">
<style type="text/css">
	.st0{fill:#FFFFFF;}
	.st1{fill:#E05C26;}
</style>
<circle class="st0" cx="201.5" cy="201.5" r="201.5"/>
<path class="st1" d="M201.5,0C90.2,0,0,90.2,0,201.5S90.2,403,201.5,403c37.2,0,72-10.1,101.9-27.6c-41.8-43.8-66-67.8-100.2-140.4
	l-40.4-1.4v76h-45.3V127L90,123.8l-4.3-44.4l37.7,10.1H221c38.1,0,69,30.9,69,69v0.9c0,30-17.4,56-42.7,68.3
	c37.2,72.1,48.3,78,90.1,122.5c40.3-36.8,65.6-89.8,65.6-148.7C403,90.2,312.8,0,201.5,0z"/>
<path class="st1" d="M243.5,162.9c0,9.6-3.9,18.3-10.2,24.6s-15,10.2-24.6,10.2l-46-1.5v-69.3h44.6
	C227.4,126.8,243.5,143,243.5,162.9z"/>
<path class="st1" d="M596.3,227.7c6.6-3.3,12.5-7.6,17.7-12.7c12.2-12.2,19.8-29.1,19.8-47.7c0-34.9-28.3-63.2-63.2-63.2h-84.8
	l-33-8.9l3.6,39.9l24.5,2.2v162.1h39.6v-66l36,1c14.7,29.6,20.2,42.5,40.4,67.8l45.1-2.9C620.2,272.3,609.6,255.6,596.3,227.7z
	 M520.4,199.1v-60.5h41.3c16.9,0,30.7,13.7,30.7,30.7c0,8.9-3.6,16.9-9.4,22.7s-13.8,9.4-22.7,9.4L520.4,199.1z"/>
<path class="st1" d="M802.9,229.3c0-0.1-0.1-0.1-0.1-0.2c1.7-42.5-30.1-73.2-68.1-73.2c-0.6,0-1.1,0-1.7,0
	c-39.3,0.9-69.7,31.1-69.8,73.1c0,2.6,0.1,5.3,0.3,7.8c0,0.4,0.1,0.9,0.1,1.3c0.1,1,0.2,2,0.4,3c0.1,0.4,0.1,0.8,0.2,1.2
	c5.8,34.4,33.9,59.3,68.8,59.7c26.5,0.3,46.7-4.8,59.9-13.8L797,255c-34.9,22-85.8,23.6-95-14.8h100L802.9,229.3z M702.8,214.5
	c3.1-15.2,15.9-26.7,31.3-26.7s28.2,11.4,31.3,26.7H702.8z"/>
<polygon class="st1" points="881.7,99.5 843.4,101.5 843.4,302.3 881.7,302.3 "/>
<path class="st1" d="M1061.9,229.3c0-0.1-0.1-0.1-0.1-0.2c1.7-42.5-30.1-73.2-68.1-73.2c-0.6,0-1.1,0-1.7,0
	c-39.3,0.9-69.7,31.1-69.8,73.1c0,2.6,0.1,5.3,0.3,7.8c0,0.4,0.1,0.9,0.1,1.3c0.1,1,0.2,2,0.4,3c0.1,0.4,0.1,0.8,0.2,1.2
	c5.8,34.4,33.9,59.3,68.8,59.7c26.5,0.3,46.7-4.8,59.9-13.8l4.2-33.5c-34.9,22-85.8,23.6-95-14.8h100L1061.9,229.3z M961.8,214.5
	c3.1-15.2,15.9-26.7,31.3-26.7s28.2,11.4,31.3,26.7H961.8z"/>
<path class="st1" d="M1234.9,159.1l-62.2,143.1h-30.9l-62.2-143.1h44.2c3.7,9,13.1,32.4,21.2,55.2c1.8,5,4.6,13.1,8.1,24
	c1,3,3.2,10.3,5.7,18.9c0,0.2,0.1,0.3,0.1,0.4c0-0.2,0.1-0.3,0.1-0.4c2.5-8.6,4.8-15.9,5.7-18.9c3.5-10.9,6.3-19,8.1-24
	c8.1-22.8,17.5-46.2,21.2-55.2L1234.9,159.1L1234.9,159.1z"/>
<path class="st1" d="M1568.4,215.4v83.8H1530V222c0-8.6-3.5-16.4-9.1-22s-13.4-9.1-22-9.1c-16.7,0-30.2,13.5-30.2,30.2v78h-39.3
	c1-33.3,1-67.9-0.2-103.8c-0.4-11.9-0.9-23.6-1.6-35.1c12.1-1,24.2-1.9,36.2-2.9c0.2,6.4,0.4,12.8,0.7,19.2
	c5.1-5.8,11.2-10.6,17.6-13.9c11.7-6.1,22.6-6.4,26.9-6.4c6.1-0.1,24.4-0.1,40,13.1C1569.3,186.8,1568.5,213.1,1568.4,215.4z"/>
<path class="st1" d="M1722.2,260.5c-1.2,1.2-2.7,2.2-4.1,3.1c-2.6,1.6-7.9,4.4-15.9,4.9h-6.9c-12.7,0-23-10-23-22.2v-35.1v-9.7V190
	h47.8l2.6-30.7h-50.4V120l-38.9,5.3v30.9l-28,6.2v28h28v64.9c-0.8,17.1,11,29.9,13.8,32.7c15,15.4,35.2,14.9,43.5,14.7
	c4.5-0.1,17.1-0.4,29.6-6.6L1722.2,260.5z"/>
<path class="st1" d="M1380.7,255.5c-0.1-4.5-0.2-26.4-0.7-38.5c-0.2-5.7-0.5-11.3-0.5-11.3c-0.2-3.6-0.4-6.8-0.5-9.6
	c-0.1-1.5-0.2-2.8-0.2-4V192c-0.9-6.8-4.1-13-9-18.3c-2.6-2.8-5.6-5.3-9.1-7.5c-8.5-4.9-21-8.3-35.2-9.4c-3.2-0.3-6.6-0.4-10-0.4
	c-20.3,0-38.1,4.7-48.3,11.8l-4.8,35.9c0.4-0.2,0.8-0.4,1.2-0.6c5.5-2.8,9.6-4.9,15.8-7.2c14.6-5.3,26.8-6.3,31.7-6.5
	c10.8-0.6,18.7,0.7,24.2,4.5c3,2.1,4.2,4.2,4.7,5.3c0,0,2.1,4.6,0.2,10.2c-2.3,6.6-29.8,10.8-29.8,10.8c-7.9,1-14.8,2.2-21,3.5
	c-4.6,1.3-7.7,2.6-8.6,3c-4.3,1.9-8.6,3.7-13.2,7.7c-1.2,1.1-4.9,4.3-7.7,8.7c-6,9.4-7.4,22.9-2.7,34.7
	c4.8,11.9,14.2,17.7,17.2,19.5c10.9,6.5,21.6,6.1,29.2,5.8c5.5-0.2,14.8-0.7,25-6c3.5-1.8,12.4-6.4,18.2-14.6c0.6,5.5,1.3,11,2,16.4
	h35C1381.4,280.5,1380.8,265.7,1380.7,255.5z M1335.7,260.8c-5.9,8.6-16.5,15.3-27,14.4c-2.3-0.2-7.3-0.6-11-4.4
	c-3.9-4.1-4-9.4-4-10.5c0-1.4-0.1-5,2.2-8.3c2.8-4.2,7.6-5.4,12.8-6.7c6.4-1.5,9-0.9,14.4-1.5c4.5-0.5,10.8-2,18.3-6.2
	C1341.7,241.2,1342.2,251.4,1335.7,260.8z"/>
</svg>
